<svg xmlns="http://www.w3.org/2000/svg" version="1.0" width="250.000000pt" height="250.000000pt" viewBox="0 0 250.000000 250.000000" preserveAspectRatio="xMidYMid meet">

<g transform="translate(0.000000,250.000000) scale(0.100000,-0.100000)" fill="#6f2cf6" stroke="none">
<path d="M190 2420 l0 -30 85 0 85 0 0 -545 0 -545 -90 0 -90 0 0 -30 0 -30 90 0 90 0 0 -575 0 -575 -85 0 c-84 0 -85 0 -85 -25 l0 -25 830 0 c718 0 841 2 907 16 320 66 544 292 568 574 22 253 -151 498 -433 614 l-81 33 57 18 c300 94 491 356 454 620 -18 121 -66 211 -166 310 -64 64 -101 90 -176 128 -190 96 -126 90 -1102 94 l-858 4 0 -31z m1744 -46 c450 -114 607 -597 291 -892 -112 -105 -235 -157 -405 -173 -58 -5 -396 -9 -752 -9 l-648 1 0 545 0 544 726 0 c626 0 735 -2 788 -16z m0 -1150 c204 -53 384 -221 440 -413 20 -69 21 -199 1 -274 -53 -204 -222 -363 -448 -423 -55 -15 -148 -17 -784 -18 l-723 -2 0 573 0 573 726 0 c631 0 734 -2 788 -16z" fill="#6f2cf6"/>
</g>
</svg>